<svg version="1.1" xmlns="http://www.w3.org/2000/svg" xmlns:xlink="http://www.w3.org/1999/xlink" width="60.01589" height="62.96379" viewBox="0,0,60.01589,62.96379"><g transform="translate(-209.99206,-148.51811)"><g data-paper-data="{&quot;isPaintingLayer&quot;:true}" fill="#ffffff" fill-rule="nonzero" stroke="none" stroke-width="0.5" stroke-linecap="butt" stroke-linejoin="miter" stroke-miterlimit="10" stroke-dasharray="" stroke-dashoffset="0" style="mix-blend-mode: normal"><path d="M269.78872,169.05066c0.92848,2.32119 -1.39272,3.24967 -1.39272,3.24967l-1.9888,0.77083c-5.88963,1.47241 -12.17639,2.43606 -17.70233,4.90547c-0.53147,0.17668 -1.0562,0.37119 -1.57647,0.57754c0.13934,10.22259 0.21976,20.47103 -0.50056,30.60308c0,0 -0.17812,2.49365 -2.67176,2.31553c-2.49365,-0.17812 -2.31553,-2.67176 -2.31553,-2.67176c0.66653,-9.28622 0.49045,-18.67883 0.38209,-28.0256c-0.4358,0.18485 -0.87383,0.36394 -1.31547,0.53365c-6.33399,2.43402 -12.87209,4.38105 -19.13362,7.07265c-2.36262,1.0156 -8.27767,5.32598 -11.15369,1.36499c-1.22156,-1.68239 0.49965,-4.1498 1.10644,-6.13839c0.75735,-2.48204 2.1727,-4.72318 3.49066,-6.9586c5.90711,-10.01914 13.54165,-21.63156 24.16052,-26.98029c1.67772,-0.31556 3.48078,-1.65691 5.03316,-0.94668c1.49214,0.68267 1.78131,2.78616 2.35096,4.32499c1.03728,2.80211 0.40592,6.67066 0.40592,9.59805c0,3.52326 0.03933,7.05854 0.08703,10.5999c5.69239,-2.484 12.10218,-3.51581 18.13997,-5.02526l1.34453,-0.5625c0,0 2.32119,-0.92848 3.24967,1.39272zM241.97235,175.02744c-0.00309,-0.6832 -0.00482,-1.36599 -0.00482,-2.0483c0,-4.44444 -0.00348,-8.8889 0,-13.33333c0.00141,-1.80275 -0.30835,-3.59983 -0.26075,-5.40195c0.0094,-0.35577 0.7059,-1.03426 0.35096,-1.00834c-0.47533,0.03472 -0.64456,0.70221 -0.96684,1.05332c-8.09355,4.00805 -13.07135,12.04857 -17.86195,19.38818c-1.25614,1.92452 -2.81455,3.64933 -3.97753,5.63153c-0.95204,1.62268 -1.52927,4.3196 -2.86009,6.08376c1.05333,-0.59593 2.14075,-1.13402 3.24779,-1.62123c2.11818,-0.93221 4.38473,-1.49802 6.50669,-2.4216c5.19074,-2.25925 10.48848,-4.39528 15.82655,-6.32205z"/></g></g></svg>