<svg version="1.1" xmlns="http://www.w3.org/2000/svg" xmlns:xlink="http://www.w3.org/1999/xlink" width="48.4054" height="53.52376" viewBox="0,0,48.4054,53.52376"><g transform="translate(-215.7973,-153.23812)"><g data-paper-data="{&quot;isPaintingLayer&quot;:true}" fill="#ffffff" fill-rule="nonzero" stroke="none" stroke-width="0.5" stroke-linecap="butt" stroke-linejoin="miter" stroke-miterlimit="10" stroke-dasharray="" stroke-dashoffset="0" style="mix-blend-mode: normal"><path d="M219.07451,194.78549c2.32119,-0.92848 3.24967,1.39272 3.24967,1.39272l0.11324,0.82738c1.73757,1.74086 3.50412,3.25741 5.44616,4.76132c6.80244,0.4651 14.7136,-0.45299 18.66328,-6.98073c2.55643,-4.22508 2.96222,-13.58354 -3.23308,-15.27637c-1.60078,-0.43741 -3.318,0.10147 -4.97746,0.09688c-3.77872,-0.01046 -7.56884,0.80141 -11.31337,1.40295c-1.84086,0.41933 -3.65169,1.51172 -5.52257,1.25798c-2.00503,-0.27193 -4.40786,-0.98703 -5.41581,-2.7415c-0.87115,-1.51636 0.48042,-3.46878 0.86834,-5.17399c0.64398,-2.83076 1.59953,-5.55375 2.33036,-8.35566c1.11992,-4.29363 0.78277,-10.83037 6.03341,-12.62707c1.14149,-0.3906 2.40417,0.20697 3.60784,0.28916c3.28084,0.22403 6.52801,0.80856 9.77827,1.30846c8.20243,1.26156 15.87003,3.13882 23.75743,5.76795c0,0 2.37171,0.79057 1.58114,3.16228c-0.79057,2.37171 -3.16228,1.58114 -3.16228,1.58114c-7.61067,-2.53689 -14.99664,-4.34772 -22.90923,-5.56538c-3.44886,-0.53074 -7.80957,-2.01808 -11.28056,-1.73571c-1.49573,0.12168 -1.2553,2.74812 -1.59609,4.20958c-0.80722,3.46172 -1.51044,6.85528 -2.31881,10.27282c-0.25863,1.09342 -0.58028,2.183 -1.05466,3.20154c-0.26362,0.56601 -1.18397,0.87048 -1.13166,1.49268c0.03499,0.41623 0.84368,0.01833 1.25086,-0.07483c1.40986,-0.32255 2.7859,-0.77825 4.17885,-1.16738c5.03987,-0.81511 9.87124,-1.58298 14.9852,-1.50503c1.23002,0.01875 2.51289,-0.26307 3.68921,0.09688c9.45482,2.89313 10.44431,15.44135 6.10026,22.72363c-5.18587,8.69348 -15.62759,10.10376 -24.67005,9.01927c-2.69286,-1.8319 -4.92136,-3.61021 -7.22051,-5.90534l-1.22009,-2.50596c0,0 -0.92848,-2.32119 1.39272,-3.24967z"/></g></g></svg>