<svg version="1.1" xmlns="http://www.w3.org/2000/svg" xmlns:xlink="http://www.w3.org/1999/xlink" width="40.53715" height="55.6369" viewBox="0,0,40.53715,55.6369"><g transform="translate(-219.73143,-152.18155)"><g data-paper-data="{&quot;isPaintingLayer&quot;:true}" fill="#ffffff" fill-rule="nonzero" stroke="none" stroke-width="0.5" stroke-linecap="butt" stroke-linejoin="miter" stroke-miterlimit="10" stroke-dasharray="" stroke-dashoffset="0" style="mix-blend-mode: normal"><path d="M249.96255,171.48705c-2.10534,-6.64385 -5.8303,-12.27069 -13.63825,-14.33096c-1.30451,0.07232 -4.68797,0.19092 -5.76687,0.59026c-2.11498,0.78283 -2.18395,1.71878 -3.17535,3.38474c-2.03259,3.41559 -2.9844,5.68349 -2.59274,9.73259c0.1356,1.40191 -0.17191,2.9479 0.47605,4.19845c0.3721,0.71814 2.72839,1.03603 3.1156,1.04583c3.84214,0.09716 7.91104,-0.9784 11.67401,-1.57197c3.36545,-0.53087 7.35981,-0.71225 9.90755,-3.04893zM251.26515,176.56676c-5.42288,3.22668 -13.16907,3.62922 -19.10191,4.27653c-3.84665,0.41969 -8.63783,0.58374 -11.16174,-3.16979c-0.24264,-0.36086 -1.11659,-5.54969 -1.18979,-6.33733c-0.60593,-6.52028 2.20571,-15.43649 8.85107,-18.21693c2.02587,-0.84763 5.89834,-0.84789 8.16546,-0.93767c8.88796,2.19143 14.58455,8.15704 17.9578,16.62735c0.17065,0.42851 0.32863,0.86553 0.47534,1.30984c0.1553,0.17274 0.30151,0.38304 0.43364,0.63774c0.36934,0.71193 0.3918,1.31395 0.25192,1.80332c1.06926,4.49639 1.32271,9.46856 2.01161,13.82552c0.99372,6.2849 2.5227,12.66373 2.28535,19.03359c0,0 -0.10142,2.49794 -2.59937,2.39652c-2.49794,-0.10142 -2.39652,-2.59937 -2.39652,-2.59937c0.26696,-6.00332 -1.29174,-12.12767 -2.22812,-18.04988c-0.5393,-3.41087 -1.01719,-7.05479 -1.75476,-10.59944z"/></g></g></svg>