<svg version="1.1" xmlns="http://www.w3.org/2000/svg" xmlns:xlink="http://www.w3.org/1999/xlink" width="23.02722" height="49.74613" viewBox="0,0,23.02722,49.74613"><g transform="translate(-226.97279,-155.5)"><g data-paper-data="{&quot;isPaintingLayer&quot;:true}" fill="#ffffff" fill-rule="nonzero" stroke="none" stroke-width="0.5" stroke-linecap="butt" stroke-linejoin="miter" stroke-miterlimit="10" stroke-dasharray="" stroke-dashoffset="0" style="mix-blend-mode: normal"><path d="M244.58245,161.655c-0.87374,-0.05193 -1.74213,-0.05308 -2.59216,0.12979c-1.12506,0.24204 -2.18162,0.77183 -3.17994,1.34429c-5.77802,3.31329 -1.44353,9.54797 1.50013,13.29303c1.26671,-3.03252 1.82663,-6.36454 2.81004,-9.52231c0.64833,-2.08182 1.24643,-3.39749 1.46193,-5.24479zM237.4578,181.03947c-1.78276,-2.05559 -3.71891,-4.03952 -4.85762,-6.24898c-3.98165,-7.72564 0.03661,-15.93485 8.40954,-17.90861c0.15259,-0.03597 2.16663,-0.04623 3.92966,-0.0487c0.29804,-0.65145 0.92181,-1.33318 2.22729,-1.33318c2.36302,0 2.49249,2.23355 2.49959,2.47831c0.20243,0.34043 0.33374,0.78207 0.33374,1.35503c0,0.58907 -0.1388,1.03933 -0.35099,1.3835c-0.12532,2.8815 -0.8866,4.90183 -1.76954,7.71671c-1.25986,4.01653 -1.88592,8.2207 -3.81835,12.03422c-0.12098,0.23874 -0.24869,0.47301 -0.38249,0.7032c0.6605,0.80295 1.40903,1.55517 1.78646,2.5122c3.54559,8.99038 -2.44352,17.30075 -10.00465,21.40357c-1.41683,-0.03679 -2.94696,0.44604 -4.25048,-0.11037c-4.07533,-1.7396 -4.92172,-7.02207 -3.75831,-10.73634c1.71941,-5.48934 6.4738,-9.01007 10.00615,-13.20056zM240.48722,185.23694c-1.9058,1.98987 -4.02112,3.82734 -5.66712,5.94722c-1.18845,1.5306 -5.4155,9.55186 -0.61387,9.06245c1.65274,-0.95897 3.14829,-2.26061 4.31469,-3.7741c1.05347,-1.36695 2.48288,-3.51513 2.85752,-5.2786c0.47625,-2.24181 0.02835,-4.18033 -0.89122,-5.95697z"/></g></g></svg>