<svg version="1.1" xmlns="http://www.w3.org/2000/svg" xmlns:xlink="http://www.w3.org/1999/xlink" width="38.03141" height="42.72452" viewBox="0,0,38.03141,42.72452"><g transform="translate(-218.66667,-165.83333)"><g data-paper-data="{&quot;isPaintingLayer&quot;:true}" fill="#ffffff" fill-rule="nonzero" stroke="none" stroke-width="0.5" stroke-linecap="butt" stroke-linejoin="miter" stroke-miterlimit="10" stroke-dasharray="" stroke-dashoffset="0" style="mix-blend-mode: normal"><path d="M218.66667,168.33333c0,-2.5 2.5,-2.5 2.5,-2.5h2.66667c2.05487,0.00285 4.11634,0.08329 6.15534,0.33816c5.83437,-0.01122 11.67774,-0.09364 17.51132,-0.00483c1.73414,0.0264 3.63021,-0.58057 5.2007,0.15529c1.72772,0.80953 3.51469,2.27972 3.95721,4.13567c0.32472,1.36188 -1.40535,2.42191 -2.10442,3.63494c-1.85826,3.22448 -4.34631,5.19456 -6.61886,8.09351c-2.02985,2.58935 -3.44405,5.61266 -5.34672,8.29685c-4.11931,5.81132 -8.41728,11.43794 -12.78119,17.05192c0,0 -1.53485,1.97338 -3.50823,0.43853c-1.97338,-1.53485 -0.43853,-3.50823 -0.43853,-3.50823c5.30947,-6.82266 10.61289,-13.69754 15.31965,-20.97252c2.40225,-3.71303 5.43382,-6.39533 7.94353,-9.93275c0.71441,-1.00695 1.42288,-2.18542 2.55229,-2.68417c0.22025,-0.09726 -0.46927,0.11893 -0.70945,0.13567c-1.15368,0.08039 -2.30968,0.13408 -3.46597,0.15529c-1.66639,0.03057 -3.33333,0 -5,0c-4.27401,0 -8.54801,0.00249 -12.82201,-0.00483c-1.93623,-0.24203 -3.89337,-0.33147 -5.84466,-0.3285h-2.66667c0,0 -2.5,0 -2.5,-2.5z"/></g></g></svg>