<svg version="1.1" xmlns="http://www.w3.org/2000/svg" xmlns:xlink="http://www.w3.org/1999/xlink" width="48.18743" height="50.33334" viewBox="0,0,48.18743,50.33334"><g transform="translate(-215.90628,-154.83333)"><g data-paper-data="{&quot;isPaintingLayer&quot;:true}" fill="#ffffff" fill-rule="nonzero" stroke="none" stroke-width="0.5" stroke-linecap="butt" stroke-linejoin="miter" stroke-miterlimit="10" stroke-dasharray="" stroke-dashoffset="0" style="mix-blend-mode: normal"><path d="M257.90628,202.66667c0,2.5 -2.5,2.5 -2.5,2.5h-0.66667c-9.9375,0 -19.30727,-1.94193 -29.06464,-3.38511c-1.6469,-0.24359 -3.41011,0.22944 -4.98476,-0.31103c-0.07239,-0.02484 -0.14414,-0.051 -0.2153,-0.0784l-0.00831,0.03323l-2.61593,-0.65398c-1.1133,-0.25265 -1.9444,-1.24829 -1.9444,-2.43804c0,-1.1246 0.74256,-2.07576 1.76412,-2.38994l2.86067,-0.95356c8.45927,-3.71663 17.97225,-4.8995 26.78732,-7.70658c5.43804,-1.73169 10.9954,-3.17463 11.59172,-9.75484c-0.00414,-2.73863 0.43703,-6.0116 0.04723,-8.69242c-0.54748,-3.76526 -5.05955,-7.87034 -8.56844,-8.76474c-2.65182,-0.67593 -5.93228,-0.23625 -8.64929,-0.23793c-4.96456,-0.00307 -8.77108,0.98983 -13.52464,2.53226c-2.93232,0.95148 -3.85556,1.04762 -4.38334,3.90742c0,0 -0.60634,2.42536 -3.0317,1.81902c-2.42536,-0.60634 -1.81902,-3.0317 -1.81902,-3.0317c0.32486,-1.1298 0.33467,-2.40324 0.97457,-3.38939c1.46716,-2.26104 4.28834,-3.23733 6.64209,-4.03653c6.15339,-2.08933 11.35439,-2.80395 17.8087,-2.80108c3.90071,0.00173 7.15409,-0.05752 10.61264,2.01879c3.98105,2.38999 8.02313,6.10421 8.83631,10.97855c0.50515,3.02795 0.05148,6.85668 0.04723,9.97425c-0.15081,1.21202 -0.07969,2.47296 -0.45244,3.63606c-2.16529,6.7563 -8.69433,8.72436 -14.62251,10.6091c-3.5223,1.11984 -7.22451,2.478 -10.80099,3.37176c-3.04995,0.76218 -6.08518,1.29381 -9.07254,2.03364c0.57099,0.17952 1.10896,0.33335 1.58838,0.42231c7.97333,1.47951 16.0997,2.28887 24.19727,2.28887h0.66667c0,0 2.5,0 2.5,2.5z"/></g></g></svg>