<svg version="1.1" xmlns="http://www.w3.org/2000/svg" xmlns:xlink="http://www.w3.org/1999/xlink" width="33.23593" height="50.99469" viewBox="0,0,33.23593,50.99469"><g transform="translate(-223.38203,-154.50266)"><g data-paper-data="{&quot;isPaintingLayer&quot;:true}" fill="#ffffff" fill-rule="nonzero" stroke="none" stroke-width="0.5" stroke-linecap="butt" stroke-linejoin="miter" stroke-miterlimit="10" stroke-dasharray="" stroke-dashoffset="0" style="mix-blend-mode: normal"><path d="M231.57411,186.60824c-0.0046,0.02187 -0.00922,0.04373 -0.01386,0.06558c-0.55607,2.61623 -1.82028,7.08197 -0.81444,9.82354c0.40185,1.09532 4.29266,1.4527 4.33043,1.45558c3.22761,0.24643 6.70593,0.64003 9.13476,-1.5806c1.53235,-2.63819 3.57923,-10.51464 -0.90832,-11.83455c-3.08916,-0.90861 -6.6556,-0.1719 -9.63627,0.5976l-0.62,0.81033c0,0 -0.60855,0.45641 -1.47229,0.66253zM233.39756,177.95783c3.93617,-0.87847 8.70678,-1.54552 12.42483,-0.00512c9.70985,4.02281 7.86845,15.75919 3.79214,22.94887c-1.38015,1.10965 -2.51147,2.63431 -4.14046,3.32896c-5.61705,2.39528 -17.61762,1.63949 -20.93815,-4.39407c-2.20068,-3.99874 -0.73008,-10.5177 0.12565,-14.61886c1.91597,-9.18242 4.71939,-18.79274 11.88312,-25.3774c3.79364,-3.48698 8.08792,-6.2433 13.52825,-5.05826c1.63339,0.35579 3.018,1.43871 4.52699,2.15806c0,0 3.15317,1.57658 1.57658,4.72975c-1.57658,3.15317 -4.72975,1.57658 -4.72975,1.57658c-8.97189,-4.80193 -15.39546,7.32756 -18.04922,14.7115z"/></g></g></svg>