<svg version="1.1" xmlns="http://www.w3.org/2000/svg" xmlns:xlink="http://www.w3.org/1999/xlink" width="31.51092" height="72.22884" viewBox="0,0,31.51092,72.22884"><g transform="translate(-224.24454,-143.88558)"><g data-paper-data="{&quot;isPaintingLayer&quot;:true}" fill="#ffffff" fill-rule="nonzero" stroke="none" stroke-width="0.5" stroke-linecap="butt" stroke-linejoin="miter" stroke-miterlimit="10" stroke-dasharray="" stroke-dashoffset="0" style="mix-blend-mode: normal"><path d="M225.32858,176.30473c-2.03433,-1.4531 -0.58124,-3.48743 -0.58124,-3.48743l1.74073,-2.4318c4.83648,-5.53617 9.90237,-10.80942 14.86633,-16.23337c0.22196,-0.25528 6.68088,-7.69428 6.77594,-7.75873c1.7322,-1.17433 3.88946,-3.10827 5.83098,-2.32719c1.66036,0.66797 1.04683,3.43552 1.32036,5.20419c0.57378,3.7101 0,8.28022 0,12c0,17.30962 1.57936,35.57733 -1.02907,52.71348c0,0 -0.38014,2.47093 -2.85107,2.09079c-2.47093,-0.38014 -2.09079,-2.85107 -2.09079,-2.85107c2.12522,-13.65619 0.97093,-28.1544 0.97093,-41.95319c0,-6.22222 0,-12.44444 0,-18.66667c0,-0.25283 -0.01752,-0.5084 -0.04061,-0.76484c-1.56935,1.99036 -3.48816,3.72437 -5.1557,5.64188c-4.89775,5.35051 -9.89709,10.55448 -14.67676,16.00785l-1.5926,2.23487c0,0 -1.4531,2.03433 -3.48743,0.58124z"/></g></g></svg>