<svg version="1.1" xmlns="http://www.w3.org/2000/svg" xmlns:xlink="http://www.w3.org/1999/xlink" width="56.14121" height="56.06185" viewBox="0,0,56.14121,56.06185"><g transform="translate(-211.92939,-151.96907)"><g data-paper-data="{&quot;isPaintingLayer&quot;:true}" fill="#ffffff" fill-rule="nonzero" stroke="none" stroke-width="0.5" stroke-linecap="butt" stroke-linejoin="miter" stroke-miterlimit="10" stroke-dasharray="" stroke-dashoffset="0" style="mix-blend-mode: normal"><path d="M228.63812,205.53093c0,-2.5 2.5,-2.5 2.5,-2.5l2.33483,0.02212c8.9361,-2.49846 18.13907,-3.42237 24.84624,-10.57053c1.64299,-1.75101 4.73373,-4.32681 4.71263,-7.0722c-0.01167,-1.5179 -2.90261,-0.93326 -4.40339,-1.16084c-4.76935,-0.72324 -9.47404,-1.88957 -14.24221,-2.62742c-1.5681,-0.24266 -3.23692,-0.03868 -4.72382,-0.59113l-3.52427,0c-1.38071,0 -2.5,-1.11929 -2.5,-2.5c0,-1.38071 1.11929,-2.5 2.5,-2.5l3.11978,0c5.14037,-1.17977 11.5254,-0.29685 14.78265,-4.86022c1.80831,-3.24991 4.47792,-8.85388 2.8957,-12.78915c-0.91939,-2.28669 -8.10877,-1.35063 -9.4648,-1.35063c-10.77579,0 -23.96687,1.08484 -31.02662,10.36818c0,0 -1.53485,1.97338 -3.50823,0.43853c-1.97338,-1.53485 -0.43853,-3.50823 -0.43853,-3.50823c8.33977,-10.5327 22.35765,-12.29848 34.97338,-12.29848c4.43048,0 11.25226,-0.87808 13.86854,3.9827c2.88691,5.3636 -0.56405,13.29934 -3.1043,17.87751c-0.8319,1.07528 -1.45218,2.35443 -2.4957,3.22583c-0.532,0.44425 -1.12402,0.81941 -1.7621,1.13879c1.83559,0.35632 3.66874,0.71886 5.49865,1.06617c3.8252,0.72601 7.3678,0.07347 8.43455,4.99627c1.02659,4.73748 -3.12944,8.60145 -5.95404,11.59447c-7.58698,8.03938 -17.69079,9.39072 -27.82043,12.09613l-2.9985,0.02212c0,0 -2.5,0 -2.5,-2.5z"/></g></g></svg>