<svg version="1.1" xmlns="http://www.w3.org/2000/svg" xmlns:xlink="http://www.w3.org/1999/xlink" width="43.08611" height="68.34537" viewBox="0,0,43.08611,68.34537"><g transform="translate(-218.45695,-145.82732)"><g data-paper-data="{&quot;isPaintingLayer&quot;:true}" fill="#ffffff" fill-rule="nonzero" stroke="none" stroke-width="0.5" stroke-linecap="butt" stroke-linejoin="miter" stroke-miterlimit="10" stroke-dasharray="" stroke-dashoffset="0" style="mix-blend-mode: normal"><path d="M230.32967,164.75937c-1.14036,2.73777 -2.5192,5.50117 -3.32941,8.28172c-1.73953,5.96989 -1.55155,12.30395 -2.60588,18.38723c-0.59655,3.44196 -2.26141,9.7728 0.45495,12.65225c5.30454,5.62303 14.46092,5.03924 21.57894,5.1541c1.57563,-0.54286 2.20832,-2.544 2.95045,-4.03616c0.48643,-0.97805 2.85129,-5.60635 3.17823,-6.63194c1.23661,-3.87915 1.01018,-7.35898 1.56715,-11.24599c0.95979,-6.69826 3.4394,-14.46962 2.05343,-21.3432c-0.18845,-0.93458 -1.00689,-1.62076 -1.45785,-2.46076c-3.41331,-6.35801 -10.80379,-9.8964 -17.37016,-12.40156c-0.46644,-0.16067 -0.94394,-0.67179 -1.39931,-0.48201c-1.08905,0.45389 -0.94097,2.16534 -1.34914,3.27234c-1.01478,2.75221 -1.93344,5.45891 -2.563,8.32054l-1.02701,1.84442c0,0 -0.24421,0.36631 -0.68139,0.68902zM227.38773,160.11027c0.78476,-3.4994 1.79921,-7.76445 3.69781,-10.65272c0.80812,-1.22936 1.47536,-2.80708 2.82611,-3.39006c1.40915,-0.60819 3.06712,0.12311 4.60069,0.18466c7.93657,2.93951 16.57318,7.19025 20.62984,14.93177c0.61971,1.18262 1.59693,2.23347 1.87548,3.53924c1.61056,7.54977 -0.89879,15.96494 -1.94657,23.32347c-0.16681,1.17152 0.12844,2.37216 0.01433,3.54998c-0.55222,5.69993 -2.5668,10.91698 -5.26896,15.90543c-0.91852,1.69567 -1.52744,3.63693 -2.86488,5.02626c-0.89384,0.92852 -2.34533,1.0695 -3.518,1.60425c-8.77062,0.1074 -20.14076,0.49201 -26.42106,-6.8459c-3.85346,-4.50239 -2.4504,-11.50994 -1.53044,-16.79076c1.08739,-6.24195 0.92241,-12.70307 2.71285,-18.83643c0.99947,-3.42383 2.80195,-6.82677 4.06184,-10.18699c0,0 0.33168,-0.88448 1.13096,-1.36219z"/></g></g></svg>