<svg version="1.1" xmlns="http://www.w3.org/2000/svg" xmlns:xlink="http://www.w3.org/1999/xlink" width="66.5" height="66.5" viewBox="0,0,66.5,66.5"><g transform="translate(-206.75,-146.75)"><g data-paper-data="{&quot;isPaintingLayer&quot;:true}" fill-rule="nonzero" stroke="#000000" stroke-linejoin="miter" stroke-miterlimit="10" stroke-dasharray="" stroke-dashoffset="0" style="mix-blend-mode: normal"><path d="M208,180c0,-17.67311 14.32689,-32 32,-32c17.67311,0 32,14.32689 32,32c0,17.67311 -14.32689,32 -32,32c-17.67311,0 -32,-14.32689 -32,-32z" fill="#9e9e9e" stroke-width="2.5" stroke-linecap="butt"/><path d="M221.63158,199.07017v-17h25.66667v17z" fill="#ffffff" stroke-width="2.5" stroke-linecap="butt"/><path d="M246.36491,182.87017l-12.6,6.6l-9.6,-6.8" fill="none" stroke-width="2.5" stroke-linecap="round"/><path d="M242.82978,174.71751c1.43458,1.1028 2.57359,3.56852 3.47617,5.88986c-0.07086,-0.90752 -0.17098,-1.7049 -0.34935,-2.29472c-0.67184,-2.22164 -3.87991,-6.33874 -5.51524,-8.18353c-3.98376,-4.49401 -4.96838,-3.15149 -9.65741,-4.25913c-0.43594,-0.10298 -1.16857,-0.23591 -1.88574,-0.46836c-1.02408,-0.33192 -2.01665,-0.86675 -2.06888,-1.807c-0.50805,-0.78263 -0.80314,-1.71629 -0.80314,-2.71887c0,-2.45552 1.77007,-4.49761 4.10386,-4.91992c0.19379,-0.06262 0.39872,-0.10103 0.61663,-0.11124c2.59899,-0.12169 5.07175,-0.19746 7.60143,0.54656c6.38876,1.87905 15.29543,12.83358 17.31744,20.04832c3.34174,-5.85426 8.10259,-11.5803 12.19211,-3.40125c1.45763,2.91526 -3.03188,6.7842 -3.90002,8.94901c-2.05801,5.13188 -8.39688,19.31693 -15.89589,19.31693c-5.99356,0 -8.86124,-11.58965 -10.64113,-15.59137c-0.72716,-1.63488 -1.47462,-3.25814 -2.1795,-4.90284c-0.28759,-0.63107 -0.44782,-1.33242 -0.44782,-2.07119c0,-2.76142 2.23858,-5 5,-5c0.49139,0 0.96623,0.07089 1.41484,0.20299c0.56897,0.13632 1.11898,0.38936 1.62162,0.77575z" fill="#00e526" stroke-width="2" stroke-linecap="butt"/></g></g></svg>