<svg version="1.1" xmlns="http://www.w3.org/2000/svg" xmlns:xlink="http://www.w3.org/1999/xlink" width="525" height="346.25" viewBox="0,0,525,346.25"><g transform="translate(11.5625,18.75)"><g data-paper-data="{&quot;isPaintingLayer&quot;:true}" fill="none" fill-rule="nonzero" stroke="#000000" stroke-width="5" stroke-linecap="round" stroke-linejoin="miter" stroke-miterlimit="10" stroke-dasharray="" stroke-dashoffset="0" style="mix-blend-mode: normal"><path d="M-9.0625,101.875l397.5,171.25l20,-8.75l85,41.875"/><path d="M493.4375,325l-105.625,-51.875v-289.375"/><path d="M413.4375,266.25l9.375,-8.125l72.5,32.5"/><path d="M430.3125,260.625l11.875,-10l51.875,23.125"/><path d="M456.5625,254.375l5.625,-8.125l48.75,18.125"/><path d="M45.9375,125l0,-100l59.375,20v102.5"/><path d="M174.6875,180.625v-128.75l60.625,18.75v133.125"/><path d="M399.375,215l90.625,15"/><path d="M409.375,265v-46.875"/><path d="M441.875,251.25v-28.75"/><path d="M474.375,249.375v-21.25"/></g></g></svg>