<svg version="1.1" xmlns="http://www.w3.org/2000/svg" xmlns:xlink="http://www.w3.org/1999/xlink" width="23.58612" height="39.51745" viewBox="0,0,23.58612,39.51745"><g transform="translate(-228.20694,-160.24128)"><g data-paper-data="{&quot;isPaintingLayer&quot;:true}" fill-rule="nonzero" stroke="none" stroke-width="0.5" stroke-linecap="butt" stroke-linejoin="miter" stroke-miterlimit="10" stroke-dasharray="" stroke-dashoffset="0" style="mix-blend-mode: normal"><path d="M235.73927,182.98843l0.10731,1.04524c0.57406,2.15987 1.36601,4.11609 2.22758,6.06337l1.85859,1.68962c0.5071,0.45754 0.82583,1.11989 0.82583,1.85668c0,0.41782 -0.1025,0.81171 -0.28373,1.15788l0.39442,0.19721c0.84561,0.40086 1.43041,1.26228 1.43041,2.26029c0,1.38071 -1.11929,2.5 -2.5,2.5c-0.39663,0 -0.77169,-0.09237 -1.10485,-0.25676l-2.5277,-1.17924l0.03222,-0.06907l-0.38851,-0.19426c-0.05034,-0.01651 -0.10053,-0.03375 -0.15057,-0.05175c-0.181,-0.0651 -0.34347,-0.15699 -0.49164,-0.26936l-0.95913,-0.47956l0.12068,-0.24136l-0.37102,0.09755c-1.4075,-1.16457 -3.94457,-3.05014 -4.79889,-4.70117c-1.725,-3.33366 -0.75156,-6.59496 0.13098,-9.9318c0,0 0.3835,-1.43812 1.66833,-1.79918c0.45347,-0.46068 1.08425,-0.74632 1.78174,-0.74632c1.05632,0 1.95963,0.65513 2.32578,1.58125c0.56831,0.63992 0.67216,1.47073 0.67216,1.47073z" fill="#ad6400"/><path d="M233.42323,184.81423c-0.50879,0.04361 -1.09732,-0.09477 -1.72639,-0.59803c-1.95217,-1.56174 -0.39043,-3.51391 -0.39043,-3.51391l0.51268,-0.61058c0.97774,-1.58763 1.97039,-3.21646 3.02184,-4.81476c3.16754,-5.47157 6.89905,-10.7293 11.91765,-14.49568c0,0 2,-1.5 3.5,0.5c0.38758,0.51677 0.54149,1.00018 0.5566,1.43294c0.13395,0.18852 0.24241,0.39642 0.32037,0.61867c0.4083,0.44496 0.65751,1.03827 0.65751,1.68977c0,0.6507 -0.2486,1.24333 -0.65599,1.68811l-1.67858,1.84643c-4.28259,5.34977 -8.34483,10.64481 -12.97075,15.73335c0,0 -1.40801,1.54881 -3.06451,0.52369z" fill="#000000"/></g></g></svg>